<svg width="907" height="995" viewBox="0 0 907 995" class="keymap" xmlns="http://www.w3.org/2000/svg" xmlns:xlink="http://www.w3.org/1999/xlink">
<defs>/* start glyphs */
<svg id="mdi:apple-keyboard-caps">
<svg xmlns="http://www.w3.org/2000/svg" id="mdi-apple-keyboard-caps" viewBox="0 0 24 24"><path d="M15,14V8H17.17L12,2.83L6.83,8H9V14H15M12,0L22,10H17V16H7V10H2L12,0M7,18H17V24H7V18M15,20H9V22H15V20Z" /></svg>
</svg>
<svg id="mdi:apple-keyboard-command">
<svg xmlns="http://www.w3.org/2000/svg" id="mdi-apple-keyboard-command" viewBox="0 0 24 24"><path d="M6,2A4,4 0 0,1 10,6V8H14V6A4,4 0 0,1 18,2A4,4 0 0,1 22,6A4,4 0 0,1 18,10H16V14H18A4,4 0 0,1 22,18A4,4 0 0,1 18,22A4,4 0 0,1 14,18V16H10V18A4,4 0 0,1 6,22A4,4 0 0,1 2,18A4,4 0 0,1 6,14H8V10H6A4,4 0 0,1 2,6A4,4 0 0,1 6,2M16,18A2,2 0 0,0 18,20A2,2 0 0,0 20,18A2,2 0 0,0 18,16H16V18M14,10H10V14H14V10M6,16A2,2 0 0,0 4,18A2,2 0 0,0 6,20A2,2 0 0,0 8,18V16H6M8,6A2,2 0 0,0 6,4A2,2 0 0,0 4,6A2,2 0 0,0 6,8H8V6M18,8A2,2 0 0,0 20,6A2,2 0 0,0 18,4A2,2 0 0,0 16,6V8H18Z" /></svg>
</svg>
<svg id="mdi:apple-keyboard-option">
<svg xmlns="http://www.w3.org/2000/svg" id="mdi-apple-keyboard-option" viewBox="0 0 24 24"><path d="M3,4H9.11L16.15,18H21V20H14.88L7.84,6H3V4M14,4H21V6H14V4Z" /></svg>
</svg>
<svg id="mdi:apple-keyboard-shift">
<svg xmlns="http://www.w3.org/2000/svg" id="mdi-apple-keyboard-shift" viewBox="0 0 24 24"><path d="M15,18V12H17.17L12,6.83L6.83,12H9V18H15M12,4L22,14H17V20H7V14H2L12,4Z" /></svg>
</svg>
<svg id="mdi:arrow-down-bold">
<svg xmlns="http://www.w3.org/2000/svg" id="mdi-arrow-down-bold" viewBox="0 0 24 24"><path d="M9,4H15V12H19.84L12,19.84L4.16,12H9V4Z" /></svg>
</svg>
<svg id="mdi:arrow-left-bold">
<svg xmlns="http://www.w3.org/2000/svg" id="mdi-arrow-left-bold" viewBox="0 0 24 24"><path d="M20,9V15H12V19.84L4.16,12L12,4.16V9H20Z" /></svg>
</svg>
<svg id="mdi:arrow-right-bold">
<svg xmlns="http://www.w3.org/2000/svg" id="mdi-arrow-right-bold" viewBox="0 0 24 24"><path d="M4,15V9H12V4.16L19.84,12L12,19.84V15H4Z" /></svg>
</svg>
<svg id="mdi:arrow-up-bold">
<svg xmlns="http://www.w3.org/2000/svg" id="mdi-arrow-up-bold" viewBox="0 0 24 24"><path d="M15,20H9V12H4.16L12,4.16L19.84,12H15V20Z" /></svg>
</svg>
<svg id="mdi:backspace-outline">
<svg xmlns="http://www.w3.org/2000/svg" id="mdi-backspace-outline" viewBox="0 0 24 24"><path d="M19,15.59L17.59,17L14,13.41L10.41,17L9,15.59L12.59,12L9,8.41L10.41,7L14,10.59L17.59,7L19,8.41L15.41,12L19,15.59M22,3A2,2 0 0,1 24,5V19A2,2 0 0,1 22,21H7C6.31,21 5.77,20.64 5.41,20.11L0,12L5.41,3.88C5.77,3.35 6.31,3 7,3H22M22,5H7L2.28,12L7,19H22V5Z" /></svg>
</svg>
<svg id="mdi:backspace-reverse-outline">
<svg xmlns="http://www.w3.org/2000/svg" id="mdi-backspace-reverse-outline" viewBox="0 0 24 24"><path d="M5,15.59L6.41,17L10,13.41L13.59,17L15,15.59L11.41,12L15,8.41L13.59,7L10,10.59L6.41,7L5,8.41L8.59,12L5,15.59M2,3A2,2 0 0,0 0,5V19A2,2 0 0,0 2,21H17C17.69,21 18.23,20.64 18.59,20.11L24,12L18.59,3.88C18.23,3.35 17.69,3 17,3H2M2,5H17L21.72,12L17,19H2V5Z" /></svg>
</svg>
<svg id="mdi:gesture-tap-hold">
<svg xmlns="http://www.w3.org/2000/svg" id="mdi-gesture-tap-hold" viewBox="0 0 24 24"><path d="M10,9A1,1 0 0,1 11,8A1,1 0 0,1 12,9V13.47L13.21,13.6L18.15,15.79C18.68,16.03 19,16.56 19,17.14V21.5C18.97,22.32 18.32,22.97 17.5,23H11C10.62,23 10.26,22.85 10,22.57L5.1,18.37L5.84,17.6C6.03,17.39 6.3,17.28 6.58,17.28H6.8L10,19V9M9,12.44V9A2,2 0 0,1 11,7A2,2 0 0,1 13,9V12.44C14.19,11.75 15,10.47 15,9A4,4 0 0,0 11,5A4,4 0 0,0 7,9C7,10.47 7.81,11.75 9,12.44Z" /></svg>
</svg>
<svg id="mdi:keyboard-esc">
<svg xmlns="http://www.w3.org/2000/svg" id="mdi-keyboard-esc" viewBox="0 0 24 24"><path d="M1 7H7V9H3V11H7V13H3V15H7V17H1V7M11 7H15V9H11V11H13C14.11 11 15 11.9 15 13V15C15 16.11 14.11 17 13 17H9V15H13V13H11C9.9 13 9 12.11 9 11V9C9 7.9 9.9 7 11 7M19 7H21C22.11 7 23 7.9 23 9V10H21V9H19V15H21V14H23V15C23 16.11 22.11 17 21 17H19C17.9 17 17 16.11 17 15V9C17 7.9 17.9 7 19 7Z" /></svg>
</svg>
<svg id="mdi:keyboard-return">
<svg xmlns="http://www.w3.org/2000/svg" id="mdi-keyboard-return" viewBox="0 0 24 24"><path d="M19,7V11H5.83L9.41,7.41L8,6L2,12L8,18L9.41,16.58L5.83,13H21V7H19Z" /></svg>
</svg>
<svg id="mdi:keyboard-space">
<svg xmlns="http://www.w3.org/2000/svg" id="mdi-keyboard-space" viewBox="0 0 24 24"><path d="M3 15H5V19H19V15H21V19C21 20.1 20.1 21 19 21H5C3.9 21 3 20.1 3 19V15Z" /></svg>
</svg>
<svg id="mdi:keyboard-tab">
<svg xmlns="http://www.w3.org/2000/svg" id="mdi-keyboard-tab" viewBox="0 0 24 24"><path d="M20,18H22V6H20M11.59,7.41L15.17,11H1V13H15.17L11.59,16.58L13,18L19,12L13,6L11.59,7.41Z" /></svg>
</svg>
</defs>/* end glyphs */
<style>/* inherit to force styles through use tags */
svg path {
    fill: inherit;
}

/* font and background color specifications */
svg.keymap {
    /*
     * ====================
     * Theme Variables
     * ====================
     */

    --logo-path: none;
    --logo-size: 12%;
    --logo-position: 49.5% 5%;

    /* === Colors === */

    --color--material--blue--50: rgb(227, 242, 253);
    --color--material--blue--100: rgb(187, 222, 251);
    --color--material--blue--200: rgb(144, 202, 249);
    --color--material--blue--300: rgb(100, 181, 246);
    --color--material--blue--400: rgb(66, 165, 245);
    --color--material--blue--500: rgb(33, 150, 243);
    --color--material--blue--600: rgb(30, 136, 229);
    --color--material--blue--700: rgb(25, 118, 210);
    --color--material--blue--800: rgb(21, 101, 192);
    --color--material--blue--900: rgb(13, 71, 161);
    --color--material--blue--a100: rgb(130, 177, 255);
    --color--material--blue--a200: rgb(68, 138, 255);
    --color--material--blue--a400: rgb(41, 121, 255);
    --color--material--blue--a700: rgb(41, 98, 255);

    --color--material--blue-gray--50: rgb(236, 239, 241);
    --color--material--blue-gray--100: rgb(207, 216, 220);
    --color--material--blue-gray--200: rgb(176, 190, 197);
    --color--material--blue-gray--300: rgb(144, 164, 174);
    --color--material--blue-gray--400: rgb(120, 144, 156);
    --color--material--blue-gray--500: rgb(96, 125, 139);
    --color--material--blue-gray--600: rgb(84, 110, 122);
    --color--material--blue-gray--700: rgb(69, 90, 100);
    --color--material--blue-gray--800: rgb(55, 71, 79);
    --color--material--blue-gray--900: rgb(38, 50, 56);

    --color--bg: transparent;
    --color--text: var(--color--material--blue-gray--900);

    --color--layer--text: var(--color--material--blue-gray--400);

    --color--key--bg: var(--color--material--blue-gray--50);
    --color--key--border: white;
    --color--key--text--tap: var(--color--text);
    --color--key--text--shifted: var(--color--material--blue-gray--500);
    --color--key--text--hold: var(--color--material--blue-gray--500);

    --color--combo--bg: var(--color--material--blue--50);
    --color--combo--border: var(--color--material--blue--300);
    --color--combo--dendron: var(--color--combo--border);
    --color--combo--text--tap: var(--color--material--blue-gray--800);
    --color--combo--text--shifted: var(--color--material--blue-gray--400);
    --color--combo--text--hold: var(--color--combo--text--tap);

    --color--trans--bg: transparent;
    --color--trans--border: var(--color--material--blue-gray--400);
    --color--trans--text--tap: var(--color--trans--border);
    --color--trans--text--shifted: var(--color--trans--text--tap);
    --color--trans--text--hold: var(--color--trans--text--tap);

    --color--ghost--bg: var(--color--trans--bg);
    --color--ghost--border: var(--color--trans--border);
    --color--ghost--text--tap: var(--color--trans--text--tap);
    --color--ghost--text--shifted: var(--color--trans--text--shifted);
    --color--ghost--text--hold: var(--color--trans--text--shifted);

    /*
     * ====================
     * /End Theme Variables
     * ====================
     */

    font-family: SFMono-Regular,Consolas,Liberation Mono,Menlo,monospace;
    font-size: 16px;
    font-kerning: normal;
    text-rendering: optimizeLegibility;
    fill: var(--color--text);
    background-color: var(--color--bg);
    background-image: var(--logo-path);
    background-repeat: no-repeat;
    background-position: var(--logo-position);
    background-size: var(--logo-size) auto;
}

rect,
path {
  shape-rendering: geometricPrecision;
}

text {
    text-anchor: middle;
    dominant-baseline: middle;
    line-height: 1;
}

/* Layer labels */
text.label {
    font-weight: bold;
    text-anchor: start;
    paint-order: stroke;
    fill: var(--color--layer--text);
    dominant-baseline: text-before-edge;
}


/* Keys */
rect.key,
rect.combo {
    fill: var(--color--key--bg);
    stroke: var(--color--key--border);
}
.tap {
    fill: var(--color--key--text--tap);
}
.shifted,
.hold {
    font-size: 18px;
    text-anchor: middle;
}
.shifted {
    dominant-baseline: hanging;
    fill: var(--color--key--text--shifted);
}
.hold {
    font-size: 12px;
    dominant-baseline: ideographic;
    fill: var(--color--key--text--hold);
}

.keypos-32,
.keypos-34,
.keypos-36,
.keypos-37 {
    --color--key--bg: var(--color--material--blue-gray--100);
    --color--key--border: var(--color--material--blue-gray--200);
}

/*
 * Combos
 */
.combo {
    --color--key--bg: var(--color--combo--bg);
    --color--key--border: var(--color--combo--border);
    --color--key--text--tap: var(--color--combo--text--tap);
    --color--key--text--shifted: var(--color--combo--text--shifted);
    --color--key--text--hold: var(--color--combo--text--hold);
}

rect.combo {
    stroke-width: 0;
}
path.combo {
    stroke-width: 1;
    stroke: var(--color--combo--dendron);
    stroke-dasharray: 2, 2;
    fill: none;
}
.combo.tap {
    font-size: 10px;
}
.combo.shifted {
    font-size: 10px;
    transform: translateY(-2px);
}
.combo.hold {
    font-size: 10px;
    transform: translateY(4px);
}

/*
 * Transparent, None, and Ghost Keys
 */
.trans,
.none,
.ghost {
  opacity: 0.4;
}
.none {
  display: none;
}
.trans {
    --color--key--bg: var(--color--trans--bg);
    --color--key--border: var(--color--trans--border);
    --color--key--text--tap: var(--color--trans--text--tap);
    --color--key--text--shifted: var(--color--trans--text--shifted);
    --color--key--text--hold: var(--color--trans--text--hold);
}
.ghost {
    --color--key--bg: var(--color--ghost--bg);
    --color--key--border: var(--color--ghost--border);
    --color--key--text--tap: var(--color--ghost--text--tap);
    --color--key--text--shifted: var(--color--ghost--text--shifted);
    --color--key--text--hold: var(--color--ghost--text--hold);
}</style>
<g transform="translate(0, 0)" class="layer-base">
<text x="0" y="0" class="label" id="base">base</text>
<g transform="translate(0, 0)">
<g transform="translate(78, 121) rotate(-10.0)" class="key keypos-0">
<rect rx="4" ry="4" x="-30" y="-28" width="61" height="57" class="key"/>
<text x="0" y="0" class="key tap">Q</text>
</g>
<g transform="translate(150, 66) rotate(-4.0)" class="key keypos-1">
<rect rx="4" ry="4" x="-30" y="-28" width="61" height="57" class="key"/>
<text x="0" y="0" class="key tap">W</text>
</g>
<g transform="translate(222, 30)" class="key keypos-2">
<rect rx="4" ry="4" x="-30" y="-28" width="61" height="57" class="key"/>
<text x="0" y="0" class="key tap">E</text>
</g>
<g transform="translate(286, 60)" class="key keypos-3">
<rect rx="4" ry="4" x="-30" y="-28" width="61" height="57" class="key"/>
<text x="0" y="0" class="key tap">R</text>
</g>
<g transform="translate(349, 69)" class="key keypos-4">
<rect rx="4" ry="4" x="-30" y="-28" width="61" height="57" class="key"/>
<text x="0" y="0" class="key tap">T</text>
</g>
<g transform="translate(553, 69)" class="key keypos-5">
<rect rx="4" ry="4" x="-30" y="-28" width="61" height="57" class="key"/>
<text x="0" y="0" class="key tap">Y</text>
</g>
<g transform="translate(616, 60)" class="key keypos-6">
<rect rx="4" ry="4" x="-30" y="-28" width="61" height="57" class="key"/>
<text x="0" y="0" class="key tap">U</text>
</g>
<g transform="translate(680, 30)" class="key keypos-7">
<rect rx="4" ry="4" x="-30" y="-28" width="61" height="57" class="key"/>
<text x="0" y="0" class="key tap">I</text>
</g>
<g transform="translate(752, 66) rotate(4.0)" class="key keypos-8">
<rect rx="4" ry="4" x="-30" y="-28" width="61" height="57" class="key"/>
<text x="0" y="0" class="key tap">O</text>
</g>
<g transform="translate(824, 121) rotate(10.0)" class="key keypos-9">
<rect rx="4" ry="4" x="-30" y="-28" width="61" height="57" class="key"/>
<text x="0" y="0" class="key tap">P</text>
</g>
<g transform="translate(89, 180) rotate(-10.0)" class="key keypos-10">
<rect rx="4" ry="4" x="-30" y="-28" width="61" height="57" class="key"/>
<text x="0" y="0" class="key tap">A</text>
<use href="#mdi:apple-keyboard-command" xlink:href="#mdi:apple-keyboard-command" x="-7" y="10" height="14" width="14.0" class="key hold glyph mdi:apple-keyboard-command"/>
</g>
<g transform="translate(154, 126) rotate(-4.0)" class="key keypos-11">
<rect rx="4" ry="4" x="-30" y="-28" width="61" height="57" class="key"/>
<text x="0" y="0" class="key tap">S</text>
<use href="#mdi:apple-keyboard-option" xlink:href="#mdi:apple-keyboard-option" x="-7" y="10" height="14" width="14.0" class="key hold glyph mdi:apple-keyboard-option"/>
</g>
<g transform="translate(222, 90)" class="key keypos-12">
<rect rx="4" ry="4" x="-30" y="-28" width="61" height="57" class="key"/>
<text x="0" y="0" class="key tap">D</text>
<text x="0" y="24" class="key hold">LCTL</text>
</g>
<g transform="translate(286, 120)" class="key keypos-13">
<rect rx="4" ry="4" x="-30" y="-28" width="61" height="57" class="key"/>
<text x="0" y="0" class="key tap">F</text>
<use href="#mdi:apple-keyboard-shift" xlink:href="#mdi:apple-keyboard-shift" x="-7" y="10" height="14" width="14.0" class="key hold glyph mdi:apple-keyboard-shift"/>
</g>
<g transform="translate(349, 129)" class="key keypos-14">
<rect rx="4" ry="4" x="-30" y="-28" width="61" height="57" class="key"/>
<text x="0" y="0" class="key tap">G</text>
</g>
<g transform="translate(553, 130)" class="key keypos-15">
<rect rx="4" ry="4" x="-30" y="-28" width="61" height="57" class="key"/>
<text x="0" y="0" class="key tap">H</text>
</g>
<g transform="translate(616, 120)" class="key keypos-16">
<rect rx="4" ry="4" x="-30" y="-28" width="61" height="57" class="key"/>
<text x="0" y="0" class="key tap">J</text>
<use href="#mdi:apple-keyboard-shift" xlink:href="#mdi:apple-keyboard-shift" x="-7" y="10" height="14" width="14.0" class="key hold glyph mdi:apple-keyboard-shift"/>
</g>
<g transform="translate(680, 90)" class="key keypos-17">
<rect rx="4" ry="4" x="-30" y="-28" width="61" height="57" class="key"/>
<text x="0" y="0" class="key tap">K</text>
<text x="0" y="24" class="key hold">LCTL</text>
</g>
<g transform="translate(748, 126) rotate(4.0)" class="key keypos-18">
<rect rx="4" ry="4" x="-30" y="-28" width="61" height="57" class="key"/>
<text x="0" y="0" class="key tap">L</text>
<use href="#mdi:apple-keyboard-option" xlink:href="#mdi:apple-keyboard-option" x="-7" y="10" height="14" width="14.0" class="key hold glyph mdi:apple-keyboard-option"/>
</g>
<g transform="translate(813, 180) rotate(10.0)" class="key keypos-19">
<rect rx="4" ry="4" x="-30" y="-28" width="61" height="57" class="key"/>
<text x="0" y="0" class="key tap">;</text>
<use href="#mdi:apple-keyboard-command" xlink:href="#mdi:apple-keyboard-command" x="-7" y="10" height="14" width="14.0" class="key hold glyph mdi:apple-keyboard-command"/>
</g>
<g transform="translate(99, 239) rotate(-10.0)" class="key keypos-20">
<rect rx="4" ry="4" x="-30" y="-28" width="61" height="57" class="key"/>
<text x="0" y="0" class="key tap">Z</text>
</g>
<g transform="translate(158, 186) rotate(-4.0)" class="key keypos-21">
<rect rx="4" ry="4" x="-30" y="-28" width="61" height="57" class="key"/>
<text x="0" y="0" class="key tap">X</text>
</g>
<g transform="translate(222, 150)" class="key keypos-22">
<rect rx="4" ry="4" x="-30" y="-28" width="61" height="57" class="key"/>
<text x="0" y="0" class="key tap">C</text>
</g>
<g transform="translate(286, 180)" class="key keypos-23">
<rect rx="4" ry="4" x="-30" y="-28" width="61" height="57" class="key"/>
<text x="0" y="0" class="key tap">V</text>
</g>
<g transform="translate(349, 189)" class="key keypos-24">
<rect rx="4" ry="4" x="-30" y="-28" width="61" height="57" class="key"/>
<text x="0" y="0" class="key tap">B</text>
</g>
<g transform="translate(553, 190)" class="key keypos-25">
<rect rx="4" ry="4" x="-30" y="-28" width="61" height="57" class="key"/>
<text x="0" y="0" class="key tap">N</text>
</g>
<g transform="translate(616, 180)" class="key keypos-26">
<rect rx="4" ry="4" x="-30" y="-28" width="61" height="57" class="key"/>
<text x="0" y="0" class="key tap">M</text>
</g>
<g transform="translate(680, 150)" class="key keypos-27">
<rect rx="4" ry="4" x="-30" y="-28" width="61" height="57" class="key"/>
<text x="0" y="0" class="key tap">,</text>
<text x="0" y="-24" class="key shifted">?</text>
</g>
<g transform="translate(744, 186) rotate(4.0)" class="key keypos-28">
<rect rx="4" ry="4" x="-30" y="-28" width="61" height="57" class="key"/>
<text x="0" y="0" class="key tap">.</text>
<text x="0" y="-24" class="key shifted">!</text>
</g>
<g transform="translate(803, 239) rotate(10.0)" class="key keypos-29">
<rect rx="4" ry="4" x="-30" y="-28" width="61" height="57" class="key"/>
<text x="0" y="0" class="key tap">&#x27;</text>
<text x="0" y="-24" class="key shifted">&quot;</text>
</g>
<g transform="translate(32, 224) rotate(-10.0)" class="key keypos-30">
<rect rx="4" ry="4" x="-30" y="-28" width="61" height="57" class="key"/>
<text x="0" y="0" class="key tap">
<tspan x="0" dy="-0.5em" style="font-size: 62%">Ctl+</tspan><tspan x="0" dy="1.0em" style="font-size: 62%">$$mdi:a…</tspan>
</text>
</g>
<g transform="translate(32, 224) rotate(-10.0)" class="key none keypos-31">
<rect rx="4" ry="4" x="-30" y="-28" width="61" height="57" class="key none"/>
</g>
<g transform="translate(268, 253)" class="key keypos-32">
<rect rx="4" ry="4" x="-30" y="-28" width="61" height="57" class="key"/>
<text x="0" y="0" class="key tap">
<tspan x="0" dy="-0.5em" style="font-size: 62%">Ctl+</tspan><tspan x="0" dy="1.0em" style="font-size: 62%">$$mdi:a…</tspan>
</text>
</g>
<g transform="translate(338, 263) rotate(15.0)" class="key keypos-33">
<rect rx="4" ry="4" x="-30" y="-28" width="61" height="57" class="key"/>
<use href="#mdi:keyboard-space" xlink:href="#mdi:keyboard-space" x="-9" y="-9" height="18" width="18.0" class="key tap glyph mdi:keyboard-space"/>
<a href="#navi">
<text x="0" y="24" class="key hold layer-activator">navi</text>
</a></g>
<g transform="translate(403, 290) rotate(30.0)" class="key keypos-34">
<rect rx="4" ry="4" x="-30" y="-28" width="61" height="57" class="key"/>
<use href="#mdi:keyboard-return" xlink:href="#mdi:keyboard-return" x="-9" y="-9" height="18" width="18.0" class="key tap glyph mdi:keyboard-return"/>
<use href="#mdi:apple-keyboard-command" xlink:href="#mdi:apple-keyboard-command" x="-7" y="10" height="14" width="14.0" class="key hold glyph mdi:apple-keyboard-command"/>
</g>
<g transform="translate(499, 290) rotate(-30.0)" class="key keypos-35">
<rect rx="4" ry="4" x="-30" y="-28" width="61" height="57" class="key"/>
<use href="#mdi:backspace-outline" xlink:href="#mdi:backspace-outline" x="-9" y="-9" height="18" width="18.0" class="key tap glyph mdi:backspace-outline"/>
<a href="#symb">
<text x="0" y="24" class="key hold layer-activator">symb</text>
</a></g>
<g transform="translate(564, 263) rotate(-15.0)" class="key keypos-36">
<rect rx="4" ry="4" x="-30" y="-28" width="61" height="57" class="key"/>
<use href="#mdi:apple-keyboard-shift" xlink:href="#mdi:apple-keyboard-shift" x="-9" y="-9" height="18" width="18.0" class="key tap glyph mdi:apple-keyboard-shift"/>
<use href="#mdi:gesture-tap-hold" xlink:href="#mdi:gesture-tap-hold" x="-7" y="10" height="14" width="14.0" class="key hold glyph mdi:gesture-tap-hold"/>
</g>
<g transform="translate(634, 253)" class="key keypos-37">
<rect rx="4" ry="4" x="-30" y="-28" width="61" height="57" class="key"/>
<text x="0" y="0" class="key tap">PP</text>
</g>
<g transform="translate(870, 224) rotate(10.0)" class="key none keypos-38">
<rect rx="4" ry="4" x="-30" y="-28" width="61" height="57" class="key none"/>
</g>
<g transform="translate(870, 224) rotate(10.0)" class="key keypos-39">
<rect rx="4" ry="4" x="-30" y="-28" width="61" height="57" class="key"/>
<text x="0" y="0" class="key tap">/</text>
<text x="0" y="-24" class="key shifted">\</text>
</g>
<g class="combo combopos-0">
<rect rx="4" ry="4" x="106" y="133" width="30" height="40" class="combo"/>
<use href="#mdi:backspace-reverse-outline" xlink:href="#mdi:backspace-reverse-outline" x="112" y="144" height="18" width="18.0" class="combo tap glyph mdi:backspace-reverse-outline"/>
<use href="#mdi:apple-keyboard-command" xlink:href="#mdi:apple-keyboard-command" x="114" y="155" height="14" width="14.0" class="combo hold glyph mdi:apple-keyboard-command"/>
</g>
<g class="combo combopos-1">
<rect rx="4" ry="4" x="173" y="88" width="30" height="40" class="combo"/>
<use href="#mdi:keyboard-tab" xlink:href="#mdi:keyboard-tab" x="179" y="99" height="18" width="18.0" class="combo tap glyph mdi:keyboard-tab"/>
<text x="188" y="124" class="combo hold"><tspan style="font-size: 62%">Alt+ LC…</tspan></text>
</g>
<g class="combo combopos-2">
<rect rx="4" ry="4" x="239" y="85" width="30" height="40" class="combo"/>
<use href="#mdi:keyboard-return" xlink:href="#mdi:keyboard-return" x="245" y="96" height="18" width="18.0" class="combo tap glyph mdi:keyboard-return"/>
<text x="254" y="121" class="combo hold"><tspan style="font-size: 62%">Sft+ LC…</tspan></text>
</g>
<g class="combo combopos-3">
<path d="M220,123 l-45,2" class="combo"/>
<path d="M220,123 l45,-2" class="combo"/>
<rect rx="4" ry="4" x="205" y="103" width="30" height="40" class="combo"/>
<use href="#mdi:keyboard-esc" xlink:href="#mdi:keyboard-esc" x="211" y="114" height="18" width="18.0" class="combo tap glyph mdi:keyboard-esc"/>
<use href="#mdi:apple-keyboard-shift" xlink:href="#mdi:apple-keyboard-shift" x="213" y="125" height="14" width="14.0" class="combo hold glyph mdi:apple-keyboard-shift"/>
</g>
<g class="combo combopos-4">
<rect rx="4" ry="4" x="303" y="105" width="30" height="40" class="combo"/>
<use href="#mdi:backspace-outline" xlink:href="#mdi:backspace-outline" x="309" y="116" height="18" width="18.0" class="combo tap glyph mdi:backspace-outline"/>
</g>
<g class="combo combopos-5">
<rect rx="4" ry="4" x="633" y="85" width="30" height="40" class="combo"/>
<text x="648" y="105" class="combo tap">
<tspan x="648" dy="-0.5em" style="font-size: 62%">Ctl+</tspan><tspan x="648" dy="1.0em" style="font-size: 62%">$$mdi:k…</tspan>
</text>
<text x="648" y="121" class="combo hold"><tspan style="font-size: 62%">Sft+ LC…</tspan></text>
</g>
<g class="combo combopos-6">
<rect rx="4" ry="4" x="699" y="88" width="30" height="40" class="combo"/>
<use href="#mdi:apple-keyboard-caps" xlink:href="#mdi:apple-keyboard-caps" x="705" y="99" height="18" width="18.0" class="combo tap glyph mdi:apple-keyboard-caps"/>
<text x="714" y="124" class="combo hold"><tspan style="font-size: 62%">Alt+ LC…</tspan></text>
</g>
<g class="combo combopos-7">
<path d="M150,238 l-97,-12" class="combo"/>
<path d="M150,238 l97,12" class="combo"/>
<rect rx="4" ry="4" x="135" y="218" width="30" height="40" class="combo"/>
<text x="150" y="238" class="combo tap">
<tspan x="150" dy="-0.5em" style="font-size: 62%">Ctl+</tspan><tspan x="150" dy="1.0em" style="font-size: 62%">$$mdi:a…</tspan>
</text>
</g>
</g>
</g>
<g transform="translate(0, 332)" class="layer-navi">
<text x="0" y="0" class="label" id="navi">navi</text>
<g transform="translate(0, 0)">
<g transform="translate(78, 121) rotate(-10.0)" class="key keypos-0">
<rect rx="4" ry="4" x="-30" y="-28" width="61" height="57" class="key"/>
<text x="0" y="0" class="key tap">0</text>
</g>
<g transform="translate(150, 66) rotate(-4.0)" class="key keypos-1">
<rect rx="4" ry="4" x="-30" y="-28" width="61" height="57" class="key"/>
<text x="0" y="0" class="key tap">7</text>
</g>
<g transform="translate(222, 30)" class="key keypos-2">
<rect rx="4" ry="4" x="-30" y="-28" width="61" height="57" class="key"/>
<text x="0" y="0" class="key tap">8</text>
</g>
<g transform="translate(286, 60)" class="key keypos-3">
<rect rx="4" ry="4" x="-30" y="-28" width="61" height="57" class="key"/>
<text x="0" y="0" class="key tap">9</text>
</g>
<g transform="translate(349, 69)" class="key trans keypos-4">
<rect rx="4" ry="4" x="-30" y="-28" width="61" height="57" class="key trans"/>
</g>
<g transform="translate(553, 69)" class="key trans keypos-5">
<rect rx="4" ry="4" x="-30" y="-28" width="61" height="57" class="key trans"/>
</g>
<g transform="translate(616, 60)" class="key keypos-6">
<rect rx="4" ry="4" x="-30" y="-28" width="61" height="57" class="key"/>
<text x="0" y="0" class="key tap">
<tspan x="0" dy="-0.5em" style="font-size: 62%">Alt+</tspan><tspan x="0" dy="1.0em" style="font-size: 62%">$$mdi:a…</tspan>
</text>
</g>
<g transform="translate(680, 30)" class="key keypos-7">
<rect rx="4" ry="4" x="-30" y="-28" width="61" height="57" class="key"/>
<text x="0" y="0" class="key tap">
<tspan x="0" dy="-0.5em" style="font-size: 62%">Alt+</tspan><tspan x="0" dy="1.0em" style="font-size: 62%">$$mdi:a…</tspan>
</text>
</g>
<g transform="translate(752, 66) rotate(4.0)" class="key keypos-8">
<rect rx="4" ry="4" x="-30" y="-28" width="61" height="57" class="key"/>
<text x="0" y="0" class="key tap">
<tspan x="0" dy="-0.5em" style="font-size: 62%">Alt+</tspan><tspan x="0" dy="1.0em" style="font-size: 62%">$$mdi:a…</tspan>
</text>
</g>
<g transform="translate(824, 121) rotate(10.0)" class="key keypos-9">
<rect rx="4" ry="4" x="-30" y="-28" width="61" height="57" class="key"/>
<text x="0" y="0" class="key tap">
<tspan x="0" dy="-0.5em" style="font-size: 62%">Alt+</tspan><tspan x="0" dy="1.0em" style="font-size: 62%">$$mdi:a…</tspan>
</text>
</g>
<g transform="translate(89, 180) rotate(-10.0)" class="key keypos-10">
<rect rx="4" ry="4" x="-30" y="-28" width="61" height="57" class="key"/>
<text x="0" y="0" class="key tap">0</text>
<use href="#mdi:apple-keyboard-command" xlink:href="#mdi:apple-keyboard-command" x="-7" y="10" height="14" width="14.0" class="key hold glyph mdi:apple-keyboard-command"/>
</g>
<g transform="translate(154, 126) rotate(-4.0)" class="key keypos-11">
<rect rx="4" ry="4" x="-30" y="-28" width="61" height="57" class="key"/>
<text x="0" y="0" class="key tap">4</text>
<use href="#mdi:apple-keyboard-option" xlink:href="#mdi:apple-keyboard-option" x="-7" y="10" height="14" width="14.0" class="key hold glyph mdi:apple-keyboard-option"/>
</g>
<g transform="translate(222, 90)" class="key keypos-12">
<rect rx="4" ry="4" x="-30" y="-28" width="61" height="57" class="key"/>
<text x="0" y="0" class="key tap">5</text>
<text x="0" y="24" class="key hold">LCTL</text>
</g>
<g transform="translate(286, 120)" class="key keypos-13">
<rect rx="4" ry="4" x="-30" y="-28" width="61" height="57" class="key"/>
<text x="0" y="0" class="key tap">6</text>
<use href="#mdi:apple-keyboard-shift" xlink:href="#mdi:apple-keyboard-shift" x="-7" y="10" height="14" width="14.0" class="key hold glyph mdi:apple-keyboard-shift"/>
</g>
<g transform="translate(349, 129)" class="key trans keypos-14">
<rect rx="4" ry="4" x="-30" y="-28" width="61" height="57" class="key trans"/>
</g>
<g transform="translate(553, 130)" class="key trans keypos-15">
<rect rx="4" ry="4" x="-30" y="-28" width="61" height="57" class="key trans"/>
</g>
<g transform="translate(616, 120)" class="key keypos-16">
<rect rx="4" ry="4" x="-30" y="-28" width="61" height="57" class="key"/>
<use href="#mdi:arrow-left-bold" xlink:href="#mdi:arrow-left-bold" x="-9" y="-9" height="18" width="18.0" class="key tap glyph mdi:arrow-left-bold"/>
<use href="#mdi:apple-keyboard-shift" xlink:href="#mdi:apple-keyboard-shift" x="-7" y="10" height="14" width="14.0" class="key hold glyph mdi:apple-keyboard-shift"/>
</g>
<g transform="translate(680, 90)" class="key keypos-17">
<rect rx="4" ry="4" x="-30" y="-28" width="61" height="57" class="key"/>
<use href="#mdi:arrow-down-bold" xlink:href="#mdi:arrow-down-bold" x="-9" y="-9" height="18" width="18.0" class="key tap glyph mdi:arrow-down-bold"/>
<text x="0" y="24" class="key hold">LCTL</text>
</g>
<g transform="translate(748, 126) rotate(4.0)" class="key keypos-18">
<rect rx="4" ry="4" x="-30" y="-28" width="61" height="57" class="key"/>
<use href="#mdi:arrow-up-bold" xlink:href="#mdi:arrow-up-bold" x="-9" y="-9" height="18" width="18.0" class="key tap glyph mdi:arrow-up-bold"/>
<use href="#mdi:apple-keyboard-option" xlink:href="#mdi:apple-keyboard-option" x="-7" y="10" height="14" width="14.0" class="key hold glyph mdi:apple-keyboard-option"/>
</g>
<g transform="translate(813, 180) rotate(10.0)" class="key keypos-19">
<rect rx="4" ry="4" x="-30" y="-28" width="61" height="57" class="key"/>
<use href="#mdi:arrow-right-bold" xlink:href="#mdi:arrow-right-bold" x="-9" y="-9" height="18" width="18.0" class="key tap glyph mdi:arrow-right-bold"/>
<use href="#mdi:apple-keyboard-command" xlink:href="#mdi:apple-keyboard-command" x="-7" y="10" height="14" width="14.0" class="key hold glyph mdi:apple-keyboard-command"/>
</g>
<g transform="translate(99, 239) rotate(-10.0)" class="key keypos-20">
<rect rx="4" ry="4" x="-30" y="-28" width="61" height="57" class="key"/>
<text x="0" y="0" class="key tap">0</text>
</g>
<g transform="translate(158, 186) rotate(-4.0)" class="key keypos-21">
<rect rx="4" ry="4" x="-30" y="-28" width="61" height="57" class="key"/>
<text x="0" y="0" class="key tap">1</text>
</g>
<g transform="translate(222, 150)" class="key keypos-22">
<rect rx="4" ry="4" x="-30" y="-28" width="61" height="57" class="key"/>
<text x="0" y="0" class="key tap">2</text>
</g>
<g transform="translate(286, 180)" class="key keypos-23">
<rect rx="4" ry="4" x="-30" y="-28" width="61" height="57" class="key"/>
<text x="0" y="0" class="key tap">3</text>
</g>
<g transform="translate(349, 189)" class="key trans keypos-24">
<rect rx="4" ry="4" x="-30" y="-28" width="61" height="57" class="key trans"/>
</g>
<g transform="translate(553, 190)" class="key trans keypos-25">
<rect rx="4" ry="4" x="-30" y="-28" width="61" height="57" class="key trans"/>
</g>
<g transform="translate(616, 180)" class="key keypos-26">
<rect rx="4" ry="4" x="-30" y="-28" width="61" height="57" class="key"/>
<text x="0" y="0" class="key tap">⇱</text>
</g>
<g transform="translate(680, 150)" class="key keypos-27">
<rect rx="4" ry="4" x="-30" y="-28" width="61" height="57" class="key"/>
<text x="0" y="0" class="key tap">⇟</text>
</g>
<g transform="translate(744, 186) rotate(4.0)" class="key keypos-28">
<rect rx="4" ry="4" x="-30" y="-28" width="61" height="57" class="key"/>
<text x="0" y="0" class="key tap">⇞</text>
</g>
<g transform="translate(803, 239) rotate(10.0)" class="key keypos-29">
<rect rx="4" ry="4" x="-30" y="-28" width="61" height="57" class="key"/>
<text x="0" y="0" class="key tap">⇲</text>
</g>
<g transform="translate(32, 224) rotate(-10.0)" class="key trans keypos-30">
<rect rx="4" ry="4" x="-30" y="-28" width="61" height="57" class="key trans"/>
</g>
<g transform="translate(32, 224) rotate(-10.0)" class="key none keypos-31">
<rect rx="4" ry="4" x="-30" y="-28" width="61" height="57" class="key none"/>
</g>
<g transform="translate(268, 253)" class="key trans keypos-32">
<rect rx="4" ry="4" x="-30" y="-28" width="61" height="57" class="key trans"/>
</g>
<g transform="translate(338, 263) rotate(15.0)" class="key held keypos-33">
<rect rx="4" ry="4" x="-30" y="-28" width="61" height="57" class="key held"/>
</g>
<g transform="translate(403, 290) rotate(30.0)" class="key trans keypos-34">
<rect rx="4" ry="4" x="-30" y="-28" width="61" height="57" class="key trans"/>
</g>
<g transform="translate(499, 290) rotate(-30.0)" class="key trans keypos-35">
<rect rx="4" ry="4" x="-30" y="-28" width="61" height="57" class="key trans"/>
</g>
<g transform="translate(564, 263) rotate(-15.0)" class="key trans keypos-36">
<rect rx="4" ry="4" x="-30" y="-28" width="61" height="57" class="key trans"/>
</g>
<g transform="translate(634, 253)" class="key trans keypos-37">
<rect rx="4" ry="4" x="-30" y="-28" width="61" height="57" class="key trans"/>
</g>
<g transform="translate(870, 224) rotate(10.0)" class="key none keypos-38">
<rect rx="4" ry="4" x="-30" y="-28" width="61" height="57" class="key none"/>
</g>
<g transform="translate(870, 224) rotate(10.0)" class="key trans keypos-39">
<rect rx="4" ry="4" x="-30" y="-28" width="61" height="57" class="key trans"/>
</g>
<g class="combo combopos-0">
<rect rx="4" ry="4" x="106" y="133" width="30" height="40" class="combo"/>
<use href="#mdi:backspace-reverse-outline" xlink:href="#mdi:backspace-reverse-outline" x="112" y="144" height="18" width="18.0" class="combo tap glyph mdi:backspace-reverse-outline"/>
<use href="#mdi:apple-keyboard-command" xlink:href="#mdi:apple-keyboard-command" x="114" y="155" height="14" width="14.0" class="combo hold glyph mdi:apple-keyboard-command"/>
</g>
<g class="combo combopos-1">
<rect rx="4" ry="4" x="173" y="88" width="30" height="40" class="combo"/>
<use href="#mdi:keyboard-tab" xlink:href="#mdi:keyboard-tab" x="179" y="99" height="18" width="18.0" class="combo tap glyph mdi:keyboard-tab"/>
<text x="188" y="124" class="combo hold"><tspan style="font-size: 62%">Alt+ LC…</tspan></text>
</g>
<g class="combo combopos-2">
<rect rx="4" ry="4" x="239" y="85" width="30" height="40" class="combo"/>
<use href="#mdi:keyboard-return" xlink:href="#mdi:keyboard-return" x="245" y="96" height="18" width="18.0" class="combo tap glyph mdi:keyboard-return"/>
<text x="254" y="121" class="combo hold"><tspan style="font-size: 62%">Sft+ LC…</tspan></text>
</g>
<g class="combo combopos-3">
<path d="M220,123 l-45,2" class="combo"/>
<path d="M220,123 l45,-2" class="combo"/>
<rect rx="4" ry="4" x="205" y="103" width="30" height="40" class="combo"/>
<use href="#mdi:keyboard-esc" xlink:href="#mdi:keyboard-esc" x="211" y="114" height="18" width="18.0" class="combo tap glyph mdi:keyboard-esc"/>
<use href="#mdi:apple-keyboard-shift" xlink:href="#mdi:apple-keyboard-shift" x="213" y="125" height="14" width="14.0" class="combo hold glyph mdi:apple-keyboard-shift"/>
</g>
<g class="combo combopos-4">
<rect rx="4" ry="4" x="303" y="105" width="30" height="40" class="combo"/>
<use href="#mdi:backspace-outline" xlink:href="#mdi:backspace-outline" x="309" y="116" height="18" width="18.0" class="combo tap glyph mdi:backspace-outline"/>
</g>
<g class="combo combopos-5">
<rect rx="4" ry="4" x="633" y="85" width="30" height="40" class="combo"/>
<text x="648" y="105" class="combo tap">
<tspan x="648" dy="-0.5em" style="font-size: 62%">Ctl+</tspan><tspan x="648" dy="1.0em" style="font-size: 62%">$$mdi:k…</tspan>
</text>
<text x="648" y="121" class="combo hold"><tspan style="font-size: 62%">Sft+ LC…</tspan></text>
</g>
<g class="combo combopos-6">
<rect rx="4" ry="4" x="699" y="88" width="30" height="40" class="combo"/>
<use href="#mdi:apple-keyboard-caps" xlink:href="#mdi:apple-keyboard-caps" x="705" y="99" height="18" width="18.0" class="combo tap glyph mdi:apple-keyboard-caps"/>
<text x="714" y="124" class="combo hold"><tspan style="font-size: 62%">Alt+ LC…</tspan></text>
</g>
<g class="combo combopos-7">
<path d="M150,238 l-97,-12" class="combo"/>
<path d="M150,238 l97,12" class="combo"/>
<rect rx="4" ry="4" x="135" y="218" width="30" height="40" class="combo"/>
<text x="150" y="238" class="combo tap">
<tspan x="150" dy="-0.5em" style="font-size: 62%">Ctl+</tspan><tspan x="150" dy="1.0em" style="font-size: 62%">$$mdi:a…</tspan>
</text>
</g>
</g>
</g>
<g transform="translate(0, 663)" class="layer-symb">
<text x="0" y="0" class="label" id="symb">symb</text>
<g transform="translate(0, 0)">
<g transform="translate(78, 121) rotate(-10.0)" class="key trans keypos-0">
<rect rx="4" ry="4" x="-30" y="-28" width="61" height="57" class="key trans"/>
</g>
<g transform="translate(150, 66) rotate(-4.0)" class="key keypos-1">
<rect rx="4" ry="4" x="-30" y="-28" width="61" height="57" class="key"/>
<text x="0" y="0" class="key tap">|</text>
</g>
<g transform="translate(222, 30)" class="key keypos-2">
<rect rx="4" ry="4" x="-30" y="-28" width="61" height="57" class="key"/>
<text x="0" y="0" class="key tap">&amp;</text>
</g>
<g transform="translate(286, 60)" class="key trans keypos-3">
<rect rx="4" ry="4" x="-30" y="-28" width="61" height="57" class="key trans"/>
</g>
<g transform="translate(349, 69)" class="key trans keypos-4">
<rect rx="4" ry="4" x="-30" y="-28" width="61" height="57" class="key trans"/>
</g>
<g transform="translate(553, 69)" class="key trans keypos-5">
<rect rx="4" ry="4" x="-30" y="-28" width="61" height="57" class="key trans"/>
</g>
<g transform="translate(616, 60)" class="key keypos-6">
<rect rx="4" ry="4" x="-30" y="-28" width="61" height="57" class="key"/>
<text x="0" y="0" class="key tap">`</text>
</g>
<g transform="translate(680, 30)" class="key keypos-7">
<rect rx="4" ry="4" x="-30" y="-28" width="61" height="57" class="key"/>
<text x="0" y="0" class="key tap">^</text>
</g>
<g transform="translate(752, 66) rotate(4.0)" class="key keypos-8">
<rect rx="4" ry="4" x="-30" y="-28" width="61" height="57" class="key"/>
<text x="0" y="0" class="key tap">$</text>
</g>
<g transform="translate(824, 121) rotate(10.0)" class="key keypos-9">
<rect rx="4" ry="4" x="-30" y="-28" width="61" height="57" class="key"/>
<text x="0" y="0" class="key tap">\</text>
</g>
<g transform="translate(89, 180) rotate(-10.0)" class="key keypos-10">
<rect rx="4" ry="4" x="-30" y="-28" width="61" height="57" class="key"/>
<text x="0" y="0" class="key tap">~</text>
<use href="#mdi:apple-keyboard-command" xlink:href="#mdi:apple-keyboard-command" x="-7" y="10" height="14" width="14.0" class="key hold glyph mdi:apple-keyboard-command"/>
</g>
<g transform="translate(154, 126) rotate(-4.0)" class="key keypos-11">
<rect rx="4" ry="4" x="-30" y="-28" width="61" height="57" class="key"/>
<text x="0" y="0" class="key tap">-</text>
<use href="#mdi:apple-keyboard-option" xlink:href="#mdi:apple-keyboard-option" x="-7" y="10" height="14" width="14.0" class="key hold glyph mdi:apple-keyboard-option"/>
</g>
<g transform="translate(222, 90)" class="key keypos-12">
<rect rx="4" ry="4" x="-30" y="-28" width="61" height="57" class="key"/>
<text x="0" y="0" class="key tap">+</text>
<text x="0" y="24" class="key hold">LCTL</text>
</g>
<g transform="translate(286, 120)" class="key keypos-13">
<rect rx="4" ry="4" x="-30" y="-28" width="61" height="57" class="key"/>
<text x="0" y="0" class="key tap">=</text>
<use href="#mdi:apple-keyboard-shift" xlink:href="#mdi:apple-keyboard-shift" x="-7" y="10" height="14" width="14.0" class="key hold glyph mdi:apple-keyboard-shift"/>
</g>
<g transform="translate(349, 129)" class="key keypos-14">
<rect rx="4" ry="4" x="-30" y="-28" width="61" height="57" class="key"/>
<text x="0" y="0" class="key tap">@</text>
</g>
<g transform="translate(553, 130)" class="key keypos-15">
<rect rx="4" ry="4" x="-30" y="-28" width="61" height="57" class="key"/>
<text x="0" y="0" class="key tap">%</text>
</g>
<g transform="translate(616, 120)" class="key keypos-16">
<rect rx="4" ry="4" x="-30" y="-28" width="61" height="57" class="key"/>
<text x="0" y="0" class="key tap">{</text>
<use href="#mdi:apple-keyboard-shift" xlink:href="#mdi:apple-keyboard-shift" x="-7" y="10" height="14" width="14.0" class="key hold glyph mdi:apple-keyboard-shift"/>
</g>
<g transform="translate(680, 90)" class="key keypos-17">
<rect rx="4" ry="4" x="-30" y="-28" width="61" height="57" class="key"/>
<text x="0" y="0" class="key tap">[</text>
<text x="0" y="24" class="key hold">LCTL</text>
</g>
<g transform="translate(748, 126) rotate(4.0)" class="key keypos-18">
<rect rx="4" ry="4" x="-30" y="-28" width="61" height="57" class="key"/>
<text x="0" y="0" class="key tap">]</text>
<use href="#mdi:apple-keyboard-option" xlink:href="#mdi:apple-keyboard-option" x="-7" y="10" height="14" width="14.0" class="key hold glyph mdi:apple-keyboard-option"/>
</g>
<g transform="translate(813, 180) rotate(10.0)" class="key keypos-19">
<rect rx="4" ry="4" x="-30" y="-28" width="61" height="57" class="key"/>
<text x="0" y="0" class="key tap">}</text>
<use href="#mdi:apple-keyboard-command" xlink:href="#mdi:apple-keyboard-command" x="-7" y="10" height="14" width="14.0" class="key hold glyph mdi:apple-keyboard-command"/>
</g>
<g transform="translate(99, 239) rotate(-10.0)" class="key keypos-20">
<rect rx="4" ry="4" x="-30" y="-28" width="61" height="57" class="key"/>
<text x="0" y="0" class="key tap">#</text>
</g>
<g transform="translate(158, 186) rotate(-4.0)" class="key keypos-21">
<rect rx="4" ry="4" x="-30" y="-28" width="61" height="57" class="key"/>
<text x="0" y="0" class="key tap">/</text>
</g>
<g transform="translate(222, 150)" class="key keypos-22">
<rect rx="4" ry="4" x="-30" y="-28" width="61" height="57" class="key"/>
<text x="0" y="0" class="key tap">*</text>
</g>
<g transform="translate(286, 180)" class="key keypos-23">
<rect rx="4" ry="4" x="-30" y="-28" width="61" height="57" class="key"/>
<text x="0" y="0" class="key tap">_</text>
</g>
<g transform="translate(349, 189)" class="key trans keypos-24">
<rect rx="4" ry="4" x="-30" y="-28" width="61" height="57" class="key trans"/>
</g>
<g transform="translate(553, 190)" class="key trans keypos-25">
<rect rx="4" ry="4" x="-30" y="-28" width="61" height="57" class="key trans"/>
</g>
<g transform="translate(616, 180)" class="key keypos-26">
<rect rx="4" ry="4" x="-30" y="-28" width="61" height="57" class="key"/>
<text x="0" y="0" class="key tap">(</text>
</g>
<g transform="translate(680, 150)" class="key keypos-27">
<rect rx="4" ry="4" x="-30" y="-28" width="61" height="57" class="key"/>
<text x="0" y="0" class="key tap">&lt;</text>
</g>
<g transform="translate(744, 186) rotate(4.0)" class="key keypos-28">
<rect rx="4" ry="4" x="-30" y="-28" width="61" height="57" class="key"/>
<text x="0" y="0" class="key tap">&gt;</text>
</g>
<g transform="translate(803, 239) rotate(10.0)" class="key keypos-29">
<rect rx="4" ry="4" x="-30" y="-28" width="61" height="57" class="key"/>
<text x="0" y="0" class="key tap">)</text>
</g>
<g transform="translate(32, 224) rotate(-10.0)" class="key trans keypos-30">
<rect rx="4" ry="4" x="-30" y="-28" width="61" height="57" class="key trans"/>
</g>
<g transform="translate(32, 224) rotate(-10.0)" class="key none keypos-31">
<rect rx="4" ry="4" x="-30" y="-28" width="61" height="57" class="key none"/>
</g>
<g transform="translate(268, 253)" class="key trans keypos-32">
<rect rx="4" ry="4" x="-30" y="-28" width="61" height="57" class="key trans"/>
</g>
<g transform="translate(338, 263) rotate(15.0)" class="key trans keypos-33">
<rect rx="4" ry="4" x="-30" y="-28" width="61" height="57" class="key trans"/>
</g>
<g transform="translate(403, 290) rotate(30.0)" class="key trans keypos-34">
<rect rx="4" ry="4" x="-30" y="-28" width="61" height="57" class="key trans"/>
</g>
<g transform="translate(499, 290) rotate(-30.0)" class="key held keypos-35">
<rect rx="4" ry="4" x="-30" y="-28" width="61" height="57" class="key held"/>
</g>
<g transform="translate(564, 263) rotate(-15.0)" class="key trans keypos-36">
<rect rx="4" ry="4" x="-30" y="-28" width="61" height="57" class="key trans"/>
</g>
<g transform="translate(634, 253)" class="key trans keypos-37">
<rect rx="4" ry="4" x="-30" y="-28" width="61" height="57" class="key trans"/>
</g>
<g transform="translate(870, 224) rotate(10.0)" class="key none keypos-38">
<rect rx="4" ry="4" x="-30" y="-28" width="61" height="57" class="key none"/>
</g>
<g transform="translate(870, 224) rotate(10.0)" class="key trans keypos-39">
<rect rx="4" ry="4" x="-30" y="-28" width="61" height="57" class="key trans"/>
</g>
<g class="combo combopos-0">
<rect rx="4" ry="4" x="106" y="133" width="30" height="40" class="combo"/>
<use href="#mdi:backspace-reverse-outline" xlink:href="#mdi:backspace-reverse-outline" x="112" y="144" height="18" width="18.0" class="combo tap glyph mdi:backspace-reverse-outline"/>
<use href="#mdi:apple-keyboard-command" xlink:href="#mdi:apple-keyboard-command" x="114" y="155" height="14" width="14.0" class="combo hold glyph mdi:apple-keyboard-command"/>
</g>
<g class="combo combopos-1">
<rect rx="4" ry="4" x="173" y="88" width="30" height="40" class="combo"/>
<use href="#mdi:keyboard-tab" xlink:href="#mdi:keyboard-tab" x="179" y="99" height="18" width="18.0" class="combo tap glyph mdi:keyboard-tab"/>
<text x="188" y="124" class="combo hold"><tspan style="font-size: 62%">Alt+ LC…</tspan></text>
</g>
<g class="combo combopos-2">
<rect rx="4" ry="4" x="239" y="85" width="30" height="40" class="combo"/>
<use href="#mdi:keyboard-return" xlink:href="#mdi:keyboard-return" x="245" y="96" height="18" width="18.0" class="combo tap glyph mdi:keyboard-return"/>
<text x="254" y="121" class="combo hold"><tspan style="font-size: 62%">Sft+ LC…</tspan></text>
</g>
<g class="combo combopos-3">
<path d="M220,123 l-45,2" class="combo"/>
<path d="M220,123 l45,-2" class="combo"/>
<rect rx="4" ry="4" x="205" y="103" width="30" height="40" class="combo"/>
<use href="#mdi:keyboard-esc" xlink:href="#mdi:keyboard-esc" x="211" y="114" height="18" width="18.0" class="combo tap glyph mdi:keyboard-esc"/>
<use href="#mdi:apple-keyboard-shift" xlink:href="#mdi:apple-keyboard-shift" x="213" y="125" height="14" width="14.0" class="combo hold glyph mdi:apple-keyboard-shift"/>
</g>
<g class="combo combopos-4">
<rect rx="4" ry="4" x="303" y="105" width="30" height="40" class="combo"/>
<use href="#mdi:backspace-outline" xlink:href="#mdi:backspace-outline" x="309" y="116" height="18" width="18.0" class="combo tap glyph mdi:backspace-outline"/>
</g>
<g class="combo combopos-5">
<rect rx="4" ry="4" x="633" y="85" width="30" height="40" class="combo"/>
<text x="648" y="105" class="combo tap">
<tspan x="648" dy="-0.5em" style="font-size: 62%">Ctl+</tspan><tspan x="648" dy="1.0em" style="font-size: 62%">$$mdi:k…</tspan>
</text>
<text x="648" y="121" class="combo hold"><tspan style="font-size: 62%">Sft+ LC…</tspan></text>
</g>
<g class="combo combopos-6">
<rect rx="4" ry="4" x="699" y="88" width="30" height="40" class="combo"/>
<use href="#mdi:apple-keyboard-caps" xlink:href="#mdi:apple-keyboard-caps" x="705" y="99" height="18" width="18.0" class="combo tap glyph mdi:apple-keyboard-caps"/>
<text x="714" y="124" class="combo hold"><tspan style="font-size: 62%">Alt+ LC…</tspan></text>
</g>
<g class="combo combopos-7">
<path d="M150,238 l-97,-12" class="combo"/>
<path d="M150,238 l97,12" class="combo"/>
<rect rx="4" ry="4" x="135" y="218" width="30" height="40" class="combo"/>
<text x="150" y="238" class="combo tap">
<tspan x="150" dy="-0.5em" style="font-size: 62%">Ctl+</tspan><tspan x="150" dy="1.0em" style="font-size: 62%">$$mdi:a…</tspan>
</text>
</g>
</g>
</g>
</svg>
